<?xml version="1.0" encoding="UTF-8" standalone="no"?>
<!DOCTYPE svg PUBLIC "-//W3C//DTD SVG 1.1//EN"
 "http://www.w3.org/Graphics/SVG/1.1/DTD/svg11.dtd">
<!-- Generated by graphviz version 2.43.0 (0)
 -->
<!-- Title: %3 Pages: 1 -->
<svg width="662pt" height="239pt"
 viewBox="0.00 0.00 662.00 239.00" xmlns="http://www.w3.org/2000/svg" xmlns:xlink="http://www.w3.org/1999/xlink">
<g id="graph0" class="graph" transform="scale(1 1) rotate(0) translate(4 235)">
<title>%3</title>
<polygon fill="white" stroke="transparent" points="-4,4 -4,-235 658,-235 658,4 -4,4"/>
<!-- _3633 -->
<g id="node1" class="node">
<title>_3633</title>
<g id="a_node1"><a xlink:title="&lt;b&gt;expr:&lt;/b&gt; Vec&#13;&#10;&lt;b&gt;type:&lt;/b&gt; Nat → *&#13;&#10;&lt;b&gt;name:&lt;/b&gt; Vec&#13;&#10;&lt;b&gt;gid:&lt;/b&gt; 3633&#13;&#10;&lt;b&gt;flags:&lt;/b&gt; 0x0&#13;&#10;&lt;b&gt;mark:&lt;/b&gt; 0x18&#13;&#10;&lt;b&gt;local_muts:&lt;/b&gt; Vec&#13;&#10;&lt;b&gt;local_vars:&lt;/b&gt; &#13;&#10;&lt;b&gt;free_vars:&lt;/b&gt; &#13;&#10;&lt;b&gt;users:&lt;/b&gt; {}&#13;&#10;&lt;b&gt;loc:&lt;/b&gt; lit/docs/dep.mim:6:1&#45;6:37">
<polygon fill="#5fbf69" stroke="black" stroke-width="2" points="59,-231 0,-231 0,-195 59,-195 59,-231"/>
<polyline fill="none" stroke="black" stroke-width="2" points="12,-231 0,-219 "/>
<polyline fill="none" stroke="black" stroke-width="2" points="0,-207 12,-195 "/>
<polyline fill="none" stroke="black" stroke-width="2" points="47,-195 59,-207 "/>
<polyline fill="none" stroke="black" stroke-width="2" points="59,-219 47,-231 "/>
<text text-anchor="start" x="17.5" y="-214.8" font-family="monospace" font-size="14.00">Lam</text>
<text text-anchor="start" x="8.5" y="-204.8" font-family="monospace" font-size="9.00">Vec_3633</text>
</a>
</g>
</g>
<!-- _3635 -->
<g id="node2" class="node">
<title>_3635</title>
<g id="a_node2"><a xlink:title="&lt;b&gt;expr:&lt;/b&gt; «n_3634; Nat»&#13;&#10;&lt;b&gt;type:&lt;/b&gt; *&#13;&#10;&lt;b&gt;name:&lt;/b&gt; &#13;&#10;&lt;b&gt;gid:&lt;/b&gt; 3635&#13;&#10;&lt;b&gt;flags:&lt;/b&gt; 0x0&#13;&#10;&lt;b&gt;mark:&lt;/b&gt; 0x0&#13;&#10;&lt;b&gt;local_muts:&lt;/b&gt; &#13;&#10;&lt;b&gt;local_vars:&lt;/b&gt; n_3634&#13;&#10;&lt;b&gt;free_vars:&lt;/b&gt; n_3634&#13;&#10;&lt;b&gt;loc:&lt;/b&gt; lit/docs/dep.mim:6:30&#45;6:37">
<polygon fill="#5f85bf" stroke="black" points="67.5,-166 13.5,-166 13.5,-130 67.5,-130 67.5,-166"/>
<text text-anchor="start" x="28.5" y="-149.8" font-family="monospace" font-size="14.00">Arr</text>
<text text-anchor="start" x="27.5" y="-139.8" font-family="monospace" font-size="9.00">_3635</text>
</a>
</g>
</g>
<!-- _3633&#45;&gt;_3635 -->
<g id="edge8" class="edge">
<title>_3633:1&#45;&gt;_3635</title>
<path fill="none" stroke="black" d="M28.67,-200.85C28.67,-200.85 28.67,-176.17 28.67,-176.17"/>
<polygon fill="black" stroke="black" points="32.17,-176.17 28.67,-166.17 25.17,-176.17 32.17,-176.17"/>
</g>
<!-- _3245 -->
<g id="node8" class="node">
<title>_3245</title>
<g id="a_node8"><a xlink:title="&lt;b&gt;expr:&lt;/b&gt; Nat → *&#13;&#10;&lt;b&gt;type:&lt;/b&gt; □&#13;&#10;&lt;b&gt;name:&lt;/b&gt; &#13;&#10;&lt;b&gt;gid:&lt;/b&gt; 3245&#13;&#10;&lt;b&gt;flags:&lt;/b&gt; 0x0&#13;&#10;&lt;b&gt;mark:&lt;/b&gt; 0x0&#13;&#10;&lt;b&gt;local_muts:&lt;/b&gt; &#13;&#10;&lt;b&gt;local_vars:&lt;/b&gt; &#13;&#10;&lt;b&gt;free_vars:&lt;/b&gt; &#13;&#10;&lt;b&gt;loc:&lt;/b&gt; &lt;unknown location&gt;">
<polygon fill="#5f85bf" stroke="black" points="517.5,-166 463.5,-166 463.5,-130 517.5,-130 517.5,-166"/>
<text text-anchor="start" x="482.5" y="-149.8" font-family="monospace" font-size="14.00">Pi</text>
<text text-anchor="start" x="477.5" y="-139.8" font-family="monospace" font-size="9.00">_3245</text>
</a>
</g>
</g>
<!-- _3633&#45;&gt;_3245 -->
<g id="edge14" class="edge">
<title>_3633&#45;&gt;_3245</title>
<path fill="none" stroke="gray" stroke-dasharray="5,2" d="M43.83,-194.89C43.83,-185.1 43.83,-175 43.83,-175 43.83,-175 489.5,-175 489.5,-175 489.5,-175 489.5,-174.12 489.5,-174.12"/>
<polygon fill="gray" stroke="gray" points="493,-176.16 489.5,-166.16 486,-176.16 493,-176.16"/>
</g>
<!-- _3634 -->
<g id="node3" class="node">
<title>_3634</title>
<g id="a_node3"><a xlink:title="&lt;b&gt;expr:&lt;/b&gt; n_3634&#13;&#10;&lt;b&gt;type:&lt;/b&gt; Nat&#13;&#10;&lt;b&gt;name:&lt;/b&gt; n&#13;&#10;&lt;b&gt;gid:&lt;/b&gt; 3634&#13;&#10;&lt;b&gt;flags:&lt;/b&gt; 0x0&#13;&#10;&lt;b&gt;mark:&lt;/b&gt; 0x0&#13;&#10;&lt;b&gt;local_muts:&lt;/b&gt; &#13;&#10;&lt;b&gt;local_vars:&lt;/b&gt; n_3634&#13;&#10;&lt;b&gt;free_vars:&lt;/b&gt; n_3634&#13;&#10;&lt;b&gt;loc:&lt;/b&gt; lit/docs/dep.mim:6:1&#45;6:37">
<polygon fill="#5fbf69" stroke="black" points="55.5,-101 1.5,-101 1.5,-65 55.5,-65 55.5,-101"/>
<text text-anchor="start" x="16" y="-84.3" font-family="monospace" font-size="14.00">Var</text>
<text text-anchor="start" x="12.5" y="-74.3" font-family="monospace" font-size="9.00">n_3634</text>
</a>
</g>
</g>
<!-- _3635&#45;&gt;_3634 -->
<g id="edge5" class="edge">
<title>_3635:0&#45;&gt;_3634</title>
<path fill="none" stroke="black" d="M27.5,-135.85C27.5,-135.85 27.5,-111.17 27.5,-111.17"/>
<polygon fill="black" stroke="black" points="31,-111.17 27.5,-101.17 24,-111.17 31,-111.17"/>
</g>
<!-- _3244 -->
<g id="node4" class="node">
<title>_3244</title>
<g id="a_node4"><a xlink:title="&lt;b&gt;expr:&lt;/b&gt; Nat&#13;&#10;&lt;b&gt;type:&lt;/b&gt; *&#13;&#10;&lt;b&gt;name:&lt;/b&gt; &#13;&#10;&lt;b&gt;gid:&lt;/b&gt; 3244&#13;&#10;&lt;b&gt;flags:&lt;/b&gt; 0x0&#13;&#10;&lt;b&gt;mark:&lt;/b&gt; 0x0&#13;&#10;&lt;b&gt;local_muts:&lt;/b&gt; &#13;&#10;&lt;b&gt;local_vars:&lt;/b&gt; &#13;&#10;&lt;b&gt;free_vars:&lt;/b&gt; &#13;&#10;&lt;b&gt;loc:&lt;/b&gt; &lt;unknown location&gt;">
<polygon fill="#5f85bf" stroke="black" points="199.5,-101 145.5,-101 145.5,-65 199.5,-65 199.5,-101"/>
<text text-anchor="start" x="160" y="-84.3" font-family="monospace" font-size="14.00">Nat</text>
<text text-anchor="start" x="159" y="-74.3" font-family="monospace" font-size="9.00">_3244</text>
</a>
</g>
</g>
<!-- _3635&#45;&gt;_3244 -->
<g id="edge6" class="edge">
<title>_3635:1&#45;&gt;_3244</title>
<path fill="none" stroke="black" d="M59.5,-135.92C59.5,-134.22 59.5,-107 59.5,-107 59.5,-107 159.5,-107 159.5,-107 159.5,-107 159.5,-106.42 159.5,-106.42"/>
<polygon fill="black" stroke="black" points="163,-111.19 159.5,-101.19 156,-111.19 163,-111.19"/>
</g>
<!-- _3238 -->
<g id="node5" class="node">
<title>_3238</title>
<g id="a_node5"><a xlink:title="&lt;b&gt;expr:&lt;/b&gt; *&#13;&#10;&lt;b&gt;type:&lt;/b&gt; &lt;nullptr&gt;&#13;&#10;&lt;b&gt;name:&lt;/b&gt; &#13;&#10;&lt;b&gt;gid:&lt;/b&gt; 3238&#13;&#10;&lt;b&gt;flags:&lt;/b&gt; 0x0&#13;&#10;&lt;b&gt;mark:&lt;/b&gt; 0x0&#13;&#10;&lt;b&gt;local_muts:&lt;/b&gt; &#13;&#10;&lt;b&gt;local_vars:&lt;/b&gt; &#13;&#10;&lt;b&gt;free_vars:&lt;/b&gt; &#13;&#10;&lt;b&gt;loc:&lt;/b&gt; &lt;unknown location&gt;">
<polygon fill="#bfb55f" stroke="black" points="524.5,-101 470.5,-101 470.5,-65 524.5,-65 524.5,-101"/>
<text text-anchor="start" x="480.5" y="-84.8" font-family="monospace" font-size="14.00">Type</text>
<text text-anchor="start" x="484" y="-74.8" font-family="monospace" font-size="9.00">_3238</text>
</a>
</g>
</g>
<!-- _3635&#45;&gt;_3238 -->
<g id="edge7" class="edge">
<title>_3635&#45;&gt;_3238</title>
<path fill="none" stroke="gray" stroke-dasharray="5,2" d="M63.5,-129.97C63.5,-123.15 63.5,-117 63.5,-117 63.5,-117 489.3,-117 489.3,-117 489.3,-117 489.3,-111.19 489.3,-111.19"/>
<polygon fill="gray" stroke="gray" points="492.8,-111.19 489.3,-101.19 485.8,-111.19 492.8,-111.19"/>
</g>
<!-- _3634&#45;&gt;_3244 -->
<g id="edge4" class="edge">
<title>_3634&#45;&gt;_3244</title>
<path fill="none" stroke="gray" stroke-dasharray="5,2" d="M41.5,-101.08C41.5,-102.85 41.5,-104 41.5,-104 41.5,-104 152.5,-104 152.5,-104 152.5,-104 152.5,-103.71 152.5,-103.71"/>
<polygon fill="gray" stroke="gray" points="156,-111.08 152.5,-101.08 149,-111.08 156,-111.08"/>
</g>
<!-- _3244&#45;&gt;_3238 -->
<g id="edge3" class="edge">
<title>_3244&#45;&gt;_3238</title>
<path fill="none" stroke="gray" stroke-dasharray="5,2" d="M189.9,-101.16C189.9,-106.04 189.9,-110 189.9,-110 189.9,-110 479.9,-110 479.9,-110 479.9,-110 479.9,-109.12 479.9,-109.12"/>
<polygon fill="gray" stroke="gray" points="483.4,-111.16 479.9,-101.16 476.4,-111.16 483.4,-111.16"/>
</g>
<!-- _3238_0 -->
<g id="node6" class="node">
<title>_3238_0</title>
<g id="a_node6"><a xlink:title="&lt;b&gt;expr:&lt;/b&gt; 0:(Univ )&#13;&#10;&lt;b&gt;type:&lt;/b&gt; (Univ )&#13;&#10;&lt;b&gt;name:&lt;/b&gt; &#13;&#10;&lt;b&gt;gid:&lt;/b&gt; 3236&#13;&#10;&lt;b&gt;flags:&lt;/b&gt; 0x0&#13;&#10;&lt;b&gt;mark:&lt;/b&gt; 0x0&#13;&#10;&lt;b&gt;local_muts:&lt;/b&gt; &#13;&#10;&lt;b&gt;local_vars:&lt;/b&gt; &#13;&#10;&lt;b&gt;free_vars:&lt;/b&gt; &#13;&#10;&lt;b&gt;loc:&lt;/b&gt; &lt;unknown location&gt;">
<polygon fill="#5fbf69" stroke="black" points="543,-36 452,-36 452,0 543,0 543,-36"/>
<text text-anchor="start" x="460" y="-19.3" font-family="monospace" font-size="14.00">0:(Univ )</text>
<text text-anchor="start" x="484" y="-9.3" font-family="monospace" font-size="9.00">_3236</text>
</a>
</g>
</g>
<!-- _3238&#45;&gt;_3238_0 -->
<g id="edge1" class="edge">
<title>_3238:0&#45;&gt;_3238_0</title>
<path fill="none" stroke="black" d="M497.5,-70.85C497.5,-70.85 497.5,-46.17 497.5,-46.17"/>
<polygon fill="black" stroke="black" points="501,-46.17 497.5,-36.17 494,-46.17 501,-46.17"/>
</g>
<!-- _3235 -->
<g id="node7" class="node">
<title>_3235</title>
<g id="a_node7"><a xlink:title="&lt;b&gt;expr:&lt;/b&gt; (Univ )&#13;&#10;&lt;b&gt;type:&lt;/b&gt; &lt;nullptr&gt;&#13;&#10;&lt;b&gt;name:&lt;/b&gt; &#13;&#10;&lt;b&gt;gid:&lt;/b&gt; 3235&#13;&#10;&lt;b&gt;flags:&lt;/b&gt; 0x0&#13;&#10;&lt;b&gt;mark:&lt;/b&gt; 0x0&#13;&#10;&lt;b&gt;local_muts:&lt;/b&gt; &#13;&#10;&lt;b&gt;local_vars:&lt;/b&gt; &#13;&#10;&lt;b&gt;free_vars:&lt;/b&gt; &#13;&#10;&lt;b&gt;loc:&lt;/b&gt; &lt;unknown location&gt;">
<polygon fill="#bfb55f" stroke="black" points="515.5,-231 461.5,-231 461.5,-195 515.5,-195 515.5,-231"/>
<text text-anchor="start" x="471.5" y="-214.3" font-family="monospace" font-size="14.00">Univ</text>
<text text-anchor="start" x="475" y="-204.3" font-family="monospace" font-size="9.00">_3235</text>
</a>
</g>
</g>
<!-- _3238_0&#45;&gt;_3235 -->
<g id="edge2" class="edge">
<title>_3238_0&#45;&gt;_3235</title>
<path fill="none" stroke="gray" stroke-dasharray="5,2" d="M455.17,-36.1C455.17,-86.03 455.17,-222 455.17,-222 455.17,-222 455.78,-222 455.78,-222"/>
<polygon fill="gray" stroke="gray" points="451.28,-225.5 461.28,-222 451.28,-218.5 451.28,-225.5"/>
</g>
<!-- _3245&#45;&gt;_3244 -->
<g id="edge9" class="edge">
<title>_3245:0&#45;&gt;_3244</title>
<path fill="none" stroke="black" d="M467,-135.93C467,-134.58 467,-113 467,-113 467,-113 197.1,-113 197.1,-113 197.1,-113 197.1,-111.14 197.1,-111.14"/>
<polygon fill="black" stroke="black" points="200.6,-111.14 197.1,-101.14 193.6,-111.14 200.6,-111.14"/>
</g>
<!-- _3245&#45;&gt;_3238 -->
<g id="edge10" class="edge">
<title>_3245:1&#45;&gt;_3238</title>
<path fill="none" stroke="black" d="M508.1,-135.85C508.1,-135.85 508.1,-111.17 508.1,-111.17"/>
<polygon fill="black" stroke="black" points="511.6,-111.17 508.1,-101.17 504.6,-111.17 511.6,-111.17"/>
</g>
<!-- _3239 -->
<g id="node9" class="node">
<title>_3239</title>
<g id="a_node9"><a xlink:title="&lt;b&gt;expr:&lt;/b&gt; □&#13;&#10;&lt;b&gt;type:&lt;/b&gt; &lt;nullptr&gt;&#13;&#10;&lt;b&gt;name:&lt;/b&gt; &#13;&#10;&lt;b&gt;gid:&lt;/b&gt; 3239&#13;&#10;&lt;b&gt;flags:&lt;/b&gt; 0x0&#13;&#10;&lt;b&gt;mark:&lt;/b&gt; 0x0&#13;&#10;&lt;b&gt;local_muts:&lt;/b&gt; &#13;&#10;&lt;b&gt;local_vars:&lt;/b&gt; &#13;&#10;&lt;b&gt;free_vars:&lt;/b&gt; &#13;&#10;&lt;b&gt;loc:&lt;/b&gt; &lt;unknown location&gt;">
<polygon fill="#bfb55f" stroke="black" points="426.5,-231 372.5,-231 372.5,-195 426.5,-195 426.5,-231"/>
<text text-anchor="start" x="382.5" y="-214.8" font-family="monospace" font-size="14.00">Type</text>
<text text-anchor="start" x="386" y="-204.8" font-family="monospace" font-size="9.00">_3239</text>
</a>
</g>
</g>
<!-- _3245&#45;&gt;_3239 -->
<g id="edge13" class="edge">
<title>_3245&#45;&gt;_3239</title>
<path fill="none" stroke="gray" stroke-dasharray="5,2" d="M463.36,-148C460.34,-148 458.33,-148 458.33,-148 458.33,-148 458.33,-213 458.33,-213 458.33,-213 436.51,-213 436.51,-213"/>
<polygon fill="gray" stroke="gray" points="436.51,-209.5 426.51,-213 436.51,-216.5 436.51,-209.5"/>
</g>
<!-- _3239_0 -->
<g id="node10" class="node">
<title>_3239_0</title>
<g id="a_node10"><a xlink:title="&lt;b&gt;expr:&lt;/b&gt; 1:(Univ )&#13;&#10;&lt;b&gt;type:&lt;/b&gt; (Univ )&#13;&#10;&lt;b&gt;name:&lt;/b&gt; &#13;&#10;&lt;b&gt;gid:&lt;/b&gt; 3237&#13;&#10;&lt;b&gt;flags:&lt;/b&gt; 0x1&#13;&#10;&lt;b&gt;mark:&lt;/b&gt; 0x0&#13;&#10;&lt;b&gt;local_muts:&lt;/b&gt; &#13;&#10;&lt;b&gt;local_vars:&lt;/b&gt; &#13;&#10;&lt;b&gt;free_vars:&lt;/b&gt; &#13;&#10;&lt;b&gt;loc:&lt;/b&gt; &lt;unknown location&gt;">
<polygon fill="#5fbf69" stroke="black" points="445,-166 354,-166 354,-130 445,-130 445,-166"/>
<text text-anchor="start" x="362" y="-149.3" font-family="monospace" font-size="14.00">1:(Univ )</text>
<text text-anchor="start" x="386" y="-139.3" font-family="monospace" font-size="9.00">_3237</text>
</a>
</g>
</g>
<!-- _3239&#45;&gt;_3239_0 -->
<g id="edge11" class="edge">
<title>_3239:0&#45;&gt;_3239_0</title>
<path fill="none" stroke="black" d="M399.5,-200.85C399.5,-200.85 399.5,-176.17 399.5,-176.17"/>
<polygon fill="black" stroke="black" points="403,-176.17 399.5,-166.17 396,-176.17 403,-176.17"/>
</g>
<!-- _3239_0&#45;&gt;_3235 -->
<g id="edge12" class="edge">
<title>_3239_0&#45;&gt;_3235</title>
<path fill="none" stroke="gray" stroke-dasharray="5,2" d="M435.75,-166.03C435.75,-182.4 435.75,-204 435.75,-204 435.75,-204 451.2,-204 451.2,-204"/>
<polygon fill="gray" stroke="gray" points="451.2,-207.5 461.2,-204 451.2,-200.5 451.2,-207.5"/>
</g>
<!-- _3639 -->
<g id="node11" class="node">
<title>_3639</title>
<g id="a_node11"><a xlink:title="&lt;b&gt;expr:&lt;/b&gt; zeros&#13;&#10;&lt;b&gt;type:&lt;/b&gt; [n_3637: Nat] → «n_3637; Nat»&#13;&#10;&lt;b&gt;name:&lt;/b&gt; zeros&#13;&#10;&lt;b&gt;gid:&lt;/b&gt; 3639&#13;&#10;&lt;b&gt;flags:&lt;/b&gt; 0x0&#13;&#10;&lt;b&gt;mark:&lt;/b&gt; 0x1c&#13;&#10;&lt;b&gt;local_muts:&lt;/b&gt; zeros&#13;&#10;&lt;b&gt;local_vars:&lt;/b&gt; &#13;&#10;&lt;b&gt;free_vars:&lt;/b&gt; &#13;&#10;&lt;b&gt;users:&lt;/b&gt; {}&#13;&#10;&lt;b&gt;loc:&lt;/b&gt; lit/docs/dep.mim:10:1&#45;10:41">
<polygon fill="#5fbf69" stroke="black" stroke-width="2" points="619,-231 550,-231 550,-195 619,-195 619,-231"/>
<polyline fill="none" stroke="black" stroke-width="2" points="562,-231 550,-219 "/>
<polyline fill="none" stroke="black" stroke-width="2" points="550,-207 562,-195 "/>
<polyline fill="none" stroke="black" stroke-width="2" points="607,-195 619,-207 "/>
<polyline fill="none" stroke="black" stroke-width="2" points="619,-219 607,-231 "/>
<text text-anchor="start" x="572.5" y="-214.8" font-family="monospace" font-size="14.00">Lam</text>
<text text-anchor="start" x="558.5" y="-204.8" font-family="monospace" font-size="9.00">zeros_3639</text>
</a>
</g>
</g>
<!-- _3642 -->
<g id="node12" class="node">
<title>_3642</title>
<g id="a_node12"><a xlink:title="&lt;b&gt;expr:&lt;/b&gt; ‹n_3640; 0›&#13;&#10;&lt;b&gt;type:&lt;/b&gt; «n_3640; Nat»&#13;&#10;&lt;b&gt;name:&lt;/b&gt; &#13;&#10;&lt;b&gt;gid:&lt;/b&gt; 3642&#13;&#10;&lt;b&gt;flags:&lt;/b&gt; 0x0&#13;&#10;&lt;b&gt;mark:&lt;/b&gt; 0x0&#13;&#10;&lt;b&gt;local_muts:&lt;/b&gt; &#13;&#10;&lt;b&gt;local_vars:&lt;/b&gt; n_3640&#13;&#10;&lt;b&gt;free_vars:&lt;/b&gt; n_3640&#13;&#10;&lt;b&gt;loc:&lt;/b&gt; lit/docs/dep.mim:10:36&#45;10:41">
<polygon fill="#5fbf69" stroke="black" points="625.5,-166 571.5,-166 571.5,-130 625.5,-130 625.5,-166"/>
<text text-anchor="start" x="581.5" y="-149.8" font-family="monospace" font-size="14.00">Pack</text>
<text text-anchor="start" x="585" y="-139.8" font-family="monospace" font-size="9.00">_3642</text>
</a>
</g>
</g>
<!-- _3639&#45;&gt;_3642 -->
<g id="edge22" class="edge">
<title>_3639:1&#45;&gt;_3642</title>
<path fill="none" stroke="black" d="M595.25,-200.85C595.25,-200.85 595.25,-176.17 595.25,-176.17"/>
<polygon fill="black" stroke="black" points="598.75,-176.17 595.25,-166.17 591.75,-176.17 598.75,-176.17"/>
</g>
<!-- _3636 -->
<g id="node16" class="node">
<title>_3636</title>
<g id="a_node16"><a xlink:title="&lt;b&gt;expr:&lt;/b&gt; [n_3637: Nat] → «n_3637; Nat»&#13;&#10;&lt;b&gt;type:&lt;/b&gt; *&#13;&#10;&lt;b&gt;name:&lt;/b&gt; &#13;&#10;&lt;b&gt;gid:&lt;/b&gt; 3636&#13;&#10;&lt;b&gt;flags:&lt;/b&gt; 0x0&#13;&#10;&lt;b&gt;mark:&lt;/b&gt; 0x1a&#13;&#10;&lt;b&gt;local_muts:&lt;/b&gt; [n_3637: Nat] → «n_3637; Nat»&#13;&#10;&lt;b&gt;local_vars:&lt;/b&gt; &#13;&#10;&lt;b&gt;free_vars:&lt;/b&gt; &#13;&#10;&lt;b&gt;users:&lt;/b&gt; {zeros}&#13;&#10;&lt;b&gt;loc:&lt;/b&gt; lit/docs/dep.mim:10:1&#45;10:41">
<polygon fill="#5f85bf" stroke="black" stroke-width="2" points="160.5,-231 106.5,-231 106.5,-195 160.5,-195 160.5,-231"/>
<polyline fill="none" stroke="black" stroke-width="2" points="118.5,-231 106.5,-219 "/>
<polyline fill="none" stroke="black" stroke-width="2" points="106.5,-207 118.5,-195 "/>
<polyline fill="none" stroke="black" stroke-width="2" points="148.5,-195 160.5,-207 "/>
<polyline fill="none" stroke="black" stroke-width="2" points="160.5,-219 148.5,-231 "/>
<text text-anchor="start" x="125.5" y="-214.8" font-family="monospace" font-size="14.00">Pi</text>
<text text-anchor="start" x="120.5" y="-204.8" font-family="monospace" font-size="9.00">_3636</text>
</a>
</g>
</g>
<!-- _3639&#45;&gt;_3636 -->
<g id="edge30" class="edge">
<title>_3639&#45;&gt;_3636</title>
<path fill="none" stroke="gray" stroke-dasharray="5,2" d="M560.75,-194.79C560.75,-189.45 560.75,-185 560.75,-185 560.75,-185 151.5,-185 151.5,-185 151.5,-185 151.5,-185.98 151.5,-185.98"/>
<polygon fill="gray" stroke="gray" points="148,-184.79 151.5,-194.79 155,-184.79 148,-184.79"/>
</g>
<!-- _3642_0 -->
<g id="node13" class="node">
<title>_3642_0</title>
<g id="a_node13"><a xlink:title="&lt;b&gt;expr:&lt;/b&gt; 0&#13;&#10;&lt;b&gt;type:&lt;/b&gt; Nat&#13;&#10;&lt;b&gt;name:&lt;/b&gt; %core.mode.us&#13;&#10;&lt;b&gt;gid:&lt;/b&gt; 3248&#13;&#10;&lt;b&gt;flags:&lt;/b&gt; 0x0&#13;&#10;&lt;b&gt;mark:&lt;/b&gt; 0x0&#13;&#10;&lt;b&gt;local_muts:&lt;/b&gt; &#13;&#10;&lt;b&gt;local_vars:&lt;/b&gt; &#13;&#10;&lt;b&gt;free_vars:&lt;/b&gt; &#13;&#10;&lt;b&gt;loc:&lt;/b&gt; /home/runner/work/mimir/mimir/build/lib/mim/core.mim:66:5&#45;66:17">
<polygon fill="#5fbf69" stroke="black" points="654,-101 543,-101 543,-65 654,-65 654,-101"/>
<text text-anchor="start" x="594" y="-84.3" font-family="monospace" font-size="14.00">0</text>
<text text-anchor="start" x="551" y="-74.3" font-family="monospace" font-size="9.00">%core.mode.us_3248</text>
</a>
</g>
</g>
<!-- _3642&#45;&gt;_3642_0 -->
<g id="edge15" class="edge">
<title>_3642:0&#45;&gt;_3642_0</title>
<path fill="none" stroke="black" d="M607.5,-135.85C607.5,-135.85 607.5,-111.17 607.5,-111.17"/>
<polygon fill="black" stroke="black" points="611,-111.17 607.5,-101.17 604,-111.17 611,-111.17"/>
</g>
<!-- _3641 -->
<g id="node14" class="node">
<title>_3641</title>
<g id="a_node14"><a xlink:title="&lt;b&gt;expr:&lt;/b&gt; «n_3640; Nat»&#13;&#10;&lt;b&gt;type:&lt;/b&gt; *&#13;&#10;&lt;b&gt;name:&lt;/b&gt; &#13;&#10;&lt;b&gt;gid:&lt;/b&gt; 3641&#13;&#10;&lt;b&gt;flags:&lt;/b&gt; 0x0&#13;&#10;&lt;b&gt;mark:&lt;/b&gt; 0x0&#13;&#10;&lt;b&gt;local_muts:&lt;/b&gt; &#13;&#10;&lt;b&gt;local_vars:&lt;/b&gt; n_3640&#13;&#10;&lt;b&gt;free_vars:&lt;/b&gt; n_3640&#13;&#10;&lt;b&gt;loc:&lt;/b&gt; &lt;unknown location&gt;">
<polygon fill="#5f85bf" stroke="black" points="297.5,-166 243.5,-166 243.5,-130 297.5,-130 297.5,-166"/>
<text text-anchor="start" x="258.5" y="-149.8" font-family="monospace" font-size="14.00">Arr</text>
<text text-anchor="start" x="257.5" y="-139.8" font-family="monospace" font-size="9.00">_3641</text>
</a>
</g>
</g>
<!-- _3642&#45;&gt;_3641 -->
<g id="edge21" class="edge">
<title>_3642&#45;&gt;_3641</title>
<path fill="none" stroke="gray" stroke-dasharray="5,2" d="M589.5,-129.83C589.5,-127.55 589.5,-126 589.5,-126 589.5,-126 283.5,-126 283.5,-126 283.5,-126 283.5,-126.38 283.5,-126.38"/>
<polygon fill="gray" stroke="gray" points="280,-119.83 283.5,-129.83 287,-119.83 280,-119.83"/>
</g>
<!-- _3642_0&#45;&gt;_3244 -->
<g id="edge16" class="edge">
<title>_3642_0&#45;&gt;_3244</title>
<path fill="none" stroke="gray" stroke-dasharray="5,2" d="M546.5,-101.13C546.5,-111.71 546.5,-123 546.5,-123 546.5,-123 173.5,-123 173.5,-123 173.5,-123 173.5,-111.13 173.5,-111.13"/>
<polygon fill="gray" stroke="gray" points="177,-111.13 173.5,-101.13 170,-111.13 177,-111.13"/>
</g>
<!-- _3641&#45;&gt;_3244 -->
<g id="edge19" class="edge">
<title>_3641:1&#45;&gt;_3244</title>
<path fill="none" stroke="black" d="M277.44,-148C274.93,-148 194.7,-148 194.7,-148 194.7,-148 194.7,-111.11 194.7,-111.11"/>
<polygon fill="black" stroke="black" points="198.2,-111.11 194.7,-101.11 191.2,-111.11 198.2,-111.11"/>
</g>
<!-- _3641&#45;&gt;_3238 -->
<g id="edge20" class="edge">
<title>_3641&#45;&gt;_3238</title>
<path fill="none" stroke="gray" stroke-dasharray="5,2" d="M297.73,-148C311.08,-148 324.33,-148 324.33,-148 324.33,-148 324.33,-77 324.33,-77 324.33,-77 460.44,-77 460.44,-77"/>
<polygon fill="gray" stroke="gray" points="460.44,-80.5 470.44,-77 460.44,-73.5 460.44,-80.5"/>
</g>
<!-- _3640 -->
<g id="node15" class="node">
<title>_3640</title>
<g id="a_node15"><a xlink:title="&lt;b&gt;expr:&lt;/b&gt; n_3640&#13;&#10;&lt;b&gt;type:&lt;/b&gt; Nat&#13;&#10;&lt;b&gt;name:&lt;/b&gt; n&#13;&#10;&lt;b&gt;gid:&lt;/b&gt; 3640&#13;&#10;&lt;b&gt;flags:&lt;/b&gt; 0x0&#13;&#10;&lt;b&gt;mark:&lt;/b&gt; 0x0&#13;&#10;&lt;b&gt;local_muts:&lt;/b&gt; &#13;&#10;&lt;b&gt;local_vars:&lt;/b&gt; n_3640&#13;&#10;&lt;b&gt;free_vars:&lt;/b&gt; n_3640&#13;&#10;&lt;b&gt;loc:&lt;/b&gt; lit/docs/dep.mim:10:1&#45;10:41">
<polygon fill="#5fbf69" stroke="black" points="309.5,-101 255.5,-101 255.5,-65 309.5,-65 309.5,-101"/>
<text text-anchor="start" x="270" y="-84.3" font-family="monospace" font-size="14.00">Var</text>
<text text-anchor="start" x="266.5" y="-74.3" font-family="monospace" font-size="9.00">n_3640</text>
</a>
</g>
</g>
<!-- _3641&#45;&gt;_3640 -->
<g id="edge18" class="edge">
<title>_3641:0&#45;&gt;_3640</title>
<path fill="none" stroke="black" d="M269.5,-135.85C269.5,-135.85 269.5,-111.17 269.5,-111.17"/>
<polygon fill="black" stroke="black" points="273,-111.17 269.5,-101.17 266,-111.17 273,-111.17"/>
</g>
<!-- _3640&#45;&gt;_3244 -->
<g id="edge17" class="edge">
<title>_3640&#45;&gt;_3244</title>
<path fill="none" stroke="gray" stroke-dasharray="5,2" d="M255.31,-83C255.31,-83 209.76,-83 209.76,-83"/>
<polygon fill="gray" stroke="gray" points="209.76,-79.5 199.76,-83 209.76,-86.5 209.76,-79.5"/>
</g>
<!-- _3636&#45;&gt;_3244 -->
<g id="edge23" class="edge">
<title>_3636:0&#45;&gt;_3244</title>
<path fill="none" stroke="black" d="M126.55,-207C128.54,-207 192.3,-207 192.3,-207 192.3,-207 192.3,-111.03 192.3,-111.03"/>
<polygon fill="black" stroke="black" points="195.8,-111.03 192.3,-101.03 188.8,-111.03 195.8,-111.03"/>
</g>
<!-- _3636&#45;&gt;_3238 -->
<g id="edge29" class="edge">
<title>_3636&#45;&gt;_3238</title>
<path fill="none" stroke="gray" stroke-dasharray="5,2" d="M160.81,-219C216.76,-219 339.17,-219 339.17,-219 339.17,-219 339.17,-89 339.17,-89 339.17,-89 460.28,-89 460.28,-89"/>
<polygon fill="gray" stroke="gray" points="460.28,-92.5 470.28,-89 460.28,-85.5 460.28,-92.5"/>
</g>
<!-- _3638 -->
<g id="node17" class="node">
<title>_3638</title>
<g id="a_node17"><a xlink:title="&lt;b&gt;expr:&lt;/b&gt; «n_3637; Nat»&#13;&#10;&lt;b&gt;type:&lt;/b&gt; *&#13;&#10;&lt;b&gt;name:&lt;/b&gt; &#13;&#10;&lt;b&gt;gid:&lt;/b&gt; 3638&#13;&#10;&lt;b&gt;flags:&lt;/b&gt; 0x0&#13;&#10;&lt;b&gt;mark:&lt;/b&gt; 0x0&#13;&#10;&lt;b&gt;local_muts:&lt;/b&gt; &#13;&#10;&lt;b&gt;local_vars:&lt;/b&gt; n_3637&#13;&#10;&lt;b&gt;free_vars:&lt;/b&gt; n_3637&#13;&#10;&lt;b&gt;loc:&lt;/b&gt; lit/docs/dep.mim:10:28&#45;10:32">
<polygon fill="#5f85bf" stroke="black" points="187.5,-166 133.5,-166 133.5,-130 187.5,-130 187.5,-166"/>
<text text-anchor="start" x="148.5" y="-149.8" font-family="monospace" font-size="14.00">Arr</text>
<text text-anchor="start" x="147.5" y="-139.8" font-family="monospace" font-size="9.00">_3638</text>
</a>
</g>
</g>
<!-- _3636&#45;&gt;_3638 -->
<g id="edge28" class="edge">
<title>_3636:1&#45;&gt;_3638</title>
<path fill="none" stroke="black" d="M142.5,-200.85C142.5,-200.85 142.5,-176.17 142.5,-176.17"/>
<polygon fill="black" stroke="black" points="146,-176.17 142.5,-166.17 139,-176.17 146,-176.17"/>
</g>
<!-- _3638&#45;&gt;_3244 -->
<g id="edge26" class="edge">
<title>_3638:1&#45;&gt;_3244</title>
<path fill="none" stroke="black" d="M166.5,-135.85C166.5,-135.85 166.5,-111.17 166.5,-111.17"/>
<polygon fill="black" stroke="black" points="170,-111.17 166.5,-101.17 163,-111.17 170,-111.17"/>
</g>
<!-- _3638&#45;&gt;_3238 -->
<g id="edge27" class="edge">
<title>_3638&#45;&gt;_3238</title>
<path fill="none" stroke="gray" stroke-dasharray="5,2" d="M180.5,-129.79C180.5,-124.45 180.5,-120 180.5,-120 180.5,-120 498.7,-120 498.7,-120 498.7,-120 498.7,-111.07 498.7,-111.07"/>
<polygon fill="gray" stroke="gray" points="502.2,-111.07 498.7,-101.07 495.2,-111.07 502.2,-111.07"/>
</g>
<!-- _3637 -->
<g id="node18" class="node">
<title>_3637</title>
<g id="a_node18"><a xlink:title="&lt;b&gt;expr:&lt;/b&gt; n_3637&#13;&#10;&lt;b&gt;type:&lt;/b&gt; Nat&#13;&#10;&lt;b&gt;name:&lt;/b&gt; n&#13;&#10;&lt;b&gt;gid:&lt;/b&gt; 3637&#13;&#10;&lt;b&gt;flags:&lt;/b&gt; 0x0&#13;&#10;&lt;b&gt;mark:&lt;/b&gt; 0x0&#13;&#10;&lt;b&gt;local_muts:&lt;/b&gt; &#13;&#10;&lt;b&gt;local_vars:&lt;/b&gt; n_3637&#13;&#10;&lt;b&gt;free_vars:&lt;/b&gt; n_3637&#13;&#10;&lt;b&gt;loc:&lt;/b&gt; lit/docs/dep.mim:10:1&#45;10:41">
<polygon fill="#5fbf69" stroke="black" points="127.5,-101 73.5,-101 73.5,-65 127.5,-65 127.5,-101"/>
<text text-anchor="start" x="88" y="-84.3" font-family="monospace" font-size="14.00">Var</text>
<text text-anchor="start" x="84.5" y="-74.3" font-family="monospace" font-size="9.00">n_3637</text>
</a>
</g>
</g>
<!-- _3638&#45;&gt;_3637 -->
<g id="edge25" class="edge">
<title>_3638:0&#45;&gt;_3637</title>
<path fill="none" stroke="black" d="M139.5,-135.87C139.5,-133.11 139.5,-89 139.5,-89 139.5,-89 137.59,-89 137.59,-89"/>
<polygon fill="black" stroke="black" points="137.59,-85.5 127.59,-89 137.59,-92.5 137.59,-85.5"/>
</g>
<!-- _3637&#45;&gt;_3244 -->
<g id="edge24" class="edge">
<title>_3637&#45;&gt;_3244</title>
<path fill="none" stroke="gray" stroke-dasharray="5,2" d="M127.72,-77C127.72,-77 135.24,-77 135.24,-77"/>
<polygon fill="gray" stroke="gray" points="135.24,-80.5 145.24,-77 135.24,-73.5 135.24,-80.5"/>
</g>
</g>
</svg>
